<svg xmlns="http://www.w3.org/2000/svg">

  <symbol id="contact" viewBox="0 0 651.6 315.49">
    <title>Contact</title>
    <path id="letter" d="M651.6,110.12c-1.74,14.32-.46,31.66-7.64,48-7.71,17.6-14.37,35.65-21.48,53.51-1.19,3-2.55,5.9-3.5,8.95-9.21,29.57-22.61,57.33-36.35,85-2.12,4.26-3.24,9-4.88,13.51-2.34,6.4-6.8,8.34-13.32,5.81a16.13,16.13,0,0,1-3.24-1.58c-11.45-7.77-24.7-11.18-37.48-15.88-21.47-7.89-43.15-15.21-65.61-19.35C420.64,281.2,384,270.91,347,262.32a563.94,563.94,0,0,1-70-21.5c-3.84-1.44-7.42-2.4-11.62-1.21-3.29.93-5.91-.76-8.17-3.61-9.2-11.54-9.78-12.64-6.85-28.39,6.75-36.24,14.68-72.22,26.48-107.19,7.45-22.07,12.08-44.83,17.84-67.31A101.11,101.11,0,0,1,299,19.41c2.56-6.16,7.43-9.23,14.23-8.91a41.11,41.11,0,0,1,6,.35c18.44,3.62,37.19,5.61,55.34,10.84,12.3,3.54,24.86,6.21,37.15,9.77,31.89,9.24,64.77,15,95.69,27.72,10.65,4.38,21.69,8.27,33.73,7,2.67-.29,5.5.86,8.24,1.42,27.11,5.55,53.8,12.56,79.65,22.57,4.1,1.59,8.34,2.85,12.56,4.09C648.21,96.17,651.52,100.54,651.6,110.12Zm-106.3,94c3.24-1.37,4.3,1.34,5.45,3.21,10.56,17,21,34.08,31.54,51.08a30.5,30.5,0,0,0,3.62,4c4-4.43,3.94-8.21,1.45-12.67q-12.3-22-24.06-44.32c-3.18-6-6-12.2-8.73-18.43-.65-1.49-.26-3.45-.35-5.27,4,.09,4.32,3,5.41,4.94,10.18,18.15,20.25,36.37,30.45,54.51.82,1.46,2.34,2.54,4.11,4.4,1.7-4.38,2.79-7.8,4.33-11,2.69-5.63,1.69-10.39-1.55-15.7-8.13-13.32-15.79-26.93-23.29-40.61-4-7.27-7.24-14.94-10.82-22.42a26,26,0,0,1,7.59,8.64c9.44,15.81,18.77,31.68,28.23,47.48a41.74,41.74,0,0,0,4.35,5.17c4.93-4.83,3.08-9.18.76-13.64-9.8-18.82-19.52-37.67-29.34-56.47a30.51,30.51,0,0,0-3.27-4.32c-22.63,8.06-68.19,27.59-73.93,31.68,24.7,41.09,45.57,84.32,69.31,126.61,4.45-3.87,6-8.29,7.87-13.4-6.62-11.21-13.32-22.55-20-33.9-7.11-12.06-14.29-24.09-21.29-36.22-2.56-4.44-5.08-9-5.59-16.94,4.16,6.3,7,10.55,9.81,14.87,2.6,4,5.09,8.15,7.68,12.19,2.8,4.39,5.67,8.73,8.48,13.11s5.62,8.76,8.36,13.18c2.53,4.08,4.82,8.32,7.46,12.33s4.18,9.28,8.48,12.63c4.91-8.09,5.13-8.21,2.4-13.29-4.17-7.75-8.72-15.3-13-23q-10.89-19.34-21.69-38.73ZM519.6,237.18a14.94,14.94,0,0,0,0,2.12c0,.31.43.57.66.86.27-.55.91-1.3.74-1.59-.3-.53-1.09-.78-1.67-1.14-.74-2.24-1.18-4.65-2.27-6.7q-13.21-24.83-26.66-49.53a47.8,47.8,0,0,0-3.63-5c-2.2.54-4.11.92-6,1.49-17.92,5.49-35.86,10.9-53.72,16.59q-8.5,2.71-14.14-3.54c-3.71-4.13-6.93-8.7-10.27-13.16-1.6-2.14-3-4.46-4.69-7.08-8.6,4.7-16.66,9-24.68,13.49-8.71,4.83-17.37,9.76-26.07,14.61-2.78,1.55-5.87,2.66-8.35,4.58-1.87,1.45-1.22,3.49.91,4.74l-.32-.1c-2.92-1.13-5.55-2.66-9-.72-13.51,7.57-27.19,14.84-41.37,22.53,3.76,3.67,8.66,4.24,13,5.69,38.45,12.75,78.31,20,117.46,30.11,1.44.37,3.06,1.08,4-1.91-6.08-7.32-12.56-14.9-18.79-22.68-6.4-8-13.3-15.73-17-27.05,9.15,8,37.55,43.23,44,54.37,3.48.71,7.36,1.57,11.27,2.24,1.06.18,2.23-.23,4.21-.48a49.45,49.45,0,0,0-2.59-5.49Q429.52,240.7,414.21,217c-.19-.3-.68-.41-1-.6l0,0c1.14-.24,2.81-1.08,3.32-.62a32.35,32.35,0,0,1,4.6,5.47c12,16.92,23.93,33.87,36.35,51.46,3.63.75,7.92,3,14.06,1.8-2.64-4.19-4.71-7.46-6.76-10.74-6.56-10.5-13.15-21-19.64-31.53-1.63-2.64-3.45-5.38-1.56-9.69l4.86,7.25c9.79,14.6,19.54,29.24,29.39,43.8,4.37,6.47,6.8,7.36,16.55,6.34-2.41-4-4.68-7.71-6.86-11.46-5-8.63-10.07-17.25-14.9-26-.92-1.67-.88-3.87-1.28-5.82a396,396,0,0,1,27,39.86c3.48,5.85,7.46,10.08,14.21,11.62,3.1.71,6,2.1,9.08,3.08,1.38.44,3,1.48,4.44-1.33-1.79-3-3.78-6.34-5.85-9.67-7.18-11.53-14.44-23-21.56-34.57-1.86-3-4.11-6-3.66-9.92l-.27.32a61.44,61.44,0,0,1,5.39,6.07c11.27,16.52,22.43,33.13,33.63,49.7,3.91,5.79,11.5,8.9,19.51,7.8-11.1-24.06-29.08-43.83-41.5-67.62C515.5,233.1,515.69,237.84,519.6,237.18Zm-203.06-215-1,.22,1.19-.15a12.29,12.29,0,0,0,1,3.22c5.79,9.11,11.61,18.2,17.53,27.22q16.47,25.09,33.08,50.1c.66,1,1.5,1.87,2.26,2.81q13.29,16.29,26.59,32.58a102.43,102.43,0,0,1,16.62,27.71c2,5.18,4.44,10.33,10.4,14,4.75-1.19,10.16-2.49,15.53-3.91s10.84-2.91,16.21-4.51c5.75-1.71,11.47-3.57,17.19-5.41,5.34-1.71,10.63-3.55,16-5.2S500,158,505.22,156.11s10.31-4.39,15.48-6.56,10.32-4.35,15.54-6.37c5.6-2.16,11.33-4,16.91-6.23,5.07-2,10.87-3,13.87-8.47,5.94,1.16,10.27-2.19,15.21-4.86l-3.91-12.94L588,122c4.71-1.63,9.36-2.36,12.74-5.86l-8.87-24.83c-2-.6-4.63-1.54-7.32-2.15-16.41-3.7-32.76-7.67-49.27-10.87a323.92,323.92,0,0,1-43-11c-7.58-2.58-15.24-5-23-6.9-23-5.55-46.07-10.53-69-16.25-17.86-4.46-35.51-9.79-53.3-14.52C336.86,26.89,326.71,24.65,316.55,22.22Zm79.72,141.28c-2.42-3.89-3.88-6.75-5.81-9.26-8.3-10.79-16.46-21.71-25.19-32.16-14.7-17.59-25.92-37.54-38.94-56.25-.45-.65-.7-1.44-1.1-2.13-4.18-7.28-8.31-14.59-12.6-21.8-.91-1.52-2.43-2.68-4.25-4.63-.84,3.77-1.43,6.5-2,9.22-4.75,21.09-9.41,42.15-16.29,62.74-10.67,31.94-17.87,64.82-24.51,97.81a58.93,58.93,0,0,0-1.3,9.49c-.16,4.63,4,7.34,8.26,5.34,13.77-6.44,27.48-13,41.18-19.59,10.82-5.2,21.6-10.49,32.38-15.77,8.62-4.22,17.16-8.61,25.85-12.7,5.78-2.72,11.74-5,17.63-7.51C391.32,165.54,393.12,164.81,396.27,163.51Zm180.54-24.1c4.23,10.36,29.34,55.71,33.45,60.69,5.4-6.53,6.14-13,1.86-20.72-7.16-12.89-13.51-26.22-20.34-39.3-1-2-2.8-3.64-4.42-5.7Zm50.38,17.43c9.55-14.72,8.59-29.6,11.1-45.05C627.86,114.66,620,119.6,611.69,125Zm-7.47,21.33c5.67-12.62,5.69-12.63.63-23.69-2.15-4.69-4.21-9.44-6.7-13.95s-3.57-9.71-7.77-13.24c-4.44.89-8.39,2.22-11.61,5.63,8,15.06,15.79,29.75,23.61,44.41C618,177.6,618.57,177.66,619.72,178.16ZM595.24,92.86c4,7.65,6.82,13.29,9.81,18.87.52,1,1.58,1.66,3,3.11,7.24-4.33,15.91-5.78,23.83-11C620.46,98.06,609.13,95.13,595.24,92.86Z" transform="translate(0 -10.48)"/>
    <path id="pencil" d="M30.42,19c16.11,1.06,28.49,8.3,36.66,22.42,1.52,2.63,2.29,5.64,5.22,7.46,1.15.72,1.82,2.79,2,4.33.61,4.63,2,8.75,5.48,12.11a5.7,5.7,0,0,1,1.65,3.8c-.13,3.57,1.51,6.42,3,9.37,3,5.71,6.2,11.29,8.85,17.15,3.73,8.24,7.33,16.56,10.44,25a397.58,397.58,0,0,0,16.56,39.51c8.76,17.73,15.93,36.19,23,54.65.94,2.45,1.79,4.93,2.88,7.32,1.32,2.91,2.2,5.7.85,8.92-.51,1.22-.28,2.8-.19,4.2.72,11.89,1.6,23.78,2.19,35.68a310.88,310.88,0,0,0,3.32,35.54,22.13,22.13,0,0,1,.3,4.27c-.13,4.33-2.29,6.08-6.56,4.86A15.73,15.73,0,0,1,140,312.3c-5.43-5-10.6-10.27-15.9-15.4a26.32,26.32,0,0,0-3.29-2.65c-5.28-3.67-10.63-7.24-15.86-11a36.88,36.88,0,0,1-5.4-4.66,65.58,65.58,0,0,0-12.33-10.8c-2.71-1.71-4.82-3.81-3.78-7.66.32-1.17-.46-2.8-1.09-4-7.12-13.83-10.84-29-17.1-43.15-2.41-5.45-4.71-10.95-7.4-16.25A331.52,331.52,0,0,1,36,143.17c-.62-2-1.24-4.11-2.06-6.09A175,175,0,0,1,25.86,112c-1.32-5.31-2.58-10.64-6.32-15a9.37,9.37,0,0,1-1.88-3.83A16.76,16.76,0,0,0,10.23,83c-3.13-2.12-4.64-4.75-3.11-8.51.7-1.72.15-3.25-.54-4.8C4.94,66,3.36,62.28,1.68,58.59A16.3,16.3,0,0,1,.9,46.08c.7-2,1.32-4.08,1.86-6.16C5,31.49,10.76,26,17.93,21.78,21.74,19.52,26,19,30.42,19ZM70.78,137.79c.91-.56,1.59-1.83,2.73-1.13.74,3,1.05,5.86,2.17,8.39,6.51,14.83,13.2,29.58,19.89,44.34.67,1.48,1.46,3.5,2.72,4,2.58,1.06,2.72,3,3,5.1a31.59,31.59,0,0,0,1,4.86q3.73,12.31,7.56,24.59c.68,2.18,1.5,4.33,2.6,7.45,1-1.65,1.44-2.38,1.83-3.15s.68-1.79,1.15-2.6c3.6-6.18,8.35-8.45,15.52-7.54,1.82.23,3.66.34,6.06.56-.71-2.61-1.11-4.66-1.83-6.59-7.26-19.43-15.15-38.6-24.05-57.33-4.83-10.16-9.11-20.44-11.24-31.54a49.85,49.85,0,0,0-5.39-15.46c-1.06-1.85-1.68-3.95-2.63-5.87Q86.55,95,81.07,84.17A47.75,47.75,0,0,0,78.38,80a6.93,6.93,0,0,0-5.2-3.41c-5.44-.54-10.93-1.62-16.34-1.31C44.14,76,34.25,81.82,28,92.39c1.72,4.82,3.43,9,4.7,13.33s2,8.82,3.16,13.2a37.85,37.85,0,0,0,2.21,5c0-3.7,0-6.31,0-8.92.18-8.34.35-16.67.62-25,0-1.34.22-2.93,2.63-3.11,0,6.22,0,12.39,0,18.57,0,9.53,0,19.06.2,28.58a21.14,21.14,0,0,0,3.4,10.8,148.55,148.55,0,0,1-.29-29.58,109.49,109.49,0,0,1,2.71-14c.25-1.1,1.19-2,2.18-3.62-.73,9.37-1.79,17.89-2,26.43s.59,17.08.93,25.54l-2.52.55A202.32,202.32,0,0,0,58.79,182c.13.25.8.23,1.71.46-.3-5.82-.47-11.51-.91-17.18-.78-10-.21-20,.59-30A14.29,14.29,0,0,1,63,127.33c0,2.33.06,3.5,0,4.67a341.86,341.86,0,0,0,.66,47.89,42.69,42.69,0,0,1-.34,7.82c-.45,4.33-.5,4.38,3.84,9.52a14.89,14.89,0,0,0,.6-2.78c.13-17.18.85-34.32,3.9-51.28.34-1.89.53-3.81-.91-5.42ZM121.86,287c3-3.33,5.31-6.86,8.5-9.14,3.35-2.39,7.55-3.57,11.46-5.32a10.21,10.21,0,0,0,.35-2c-.23-11.16.78-22.31-.16-33.48-.52-6.16-1.07-7.36-6.84-9.07a26.74,26.74,0,0,0-4.87-1c-5.75-.58-9.65,2.68-10,8.45a37.31,37.31,0,0,0,.49,6.38c.17,1.41.63,2.79.79,4.2a3.57,3.57,0,0,1-2.12,4.08,3.65,3.65,0,0,1-4-.69c-.91-.74-1.54-1.81-2.42-2.61A19.38,19.38,0,0,0,98,241.64c-3.54.27-4.89,1.19-5.41,4.5-.92,5.89-1.47,11.81.54,16.88,3.72,3.67,7.06,6.72,10.11,10C108.68,278.89,115.64,282.51,121.86,287ZM61.55,45.55c0-.45.18-1,0-1.35Q49.79,25.77,27.93,26.46a15.69,15.69,0,0,0-8.53,3.31c-5.37,3.78-8.21,9-10,15.19C7.33,52.42,9,59.54,14.75,65.59,33.37,51.38,37.46,48.52,61.55,45.55ZM75.27,69.44c-2.35-3.16-4.4-5.23-5.61-7.71C68.35,59,67.8,56,66.94,53.13c-8.44-1.59-16.21,0-23.58,2.5A60.14,60.14,0,0,0,21.13,69.46c-2.34,2.24-5.17,4.19-5.79,7.77l7.08,8c6.63-7.08,13.89-13.13,23.41-15.67S64.63,67.5,75.27,69.44Zm6,100a470.64,470.64,0,0,1-3.87,50,12,12,0,0,0,.09,4.94c1.6,5.23,3.43,10.39,5.3,15.53a8.54,8.54,0,0,0,1.83,2.26c2.06-2.25,3.56-4.51,5.63-6s4.66-2,6.79-2.91c2.21-15.59-.46-29.88-9-43.76-2.78,13.69-1.6,27.07-3.94,40.84-2.55-3.34-2.33-6.48-2.18-9.47.55-10.94.75-22,3.24-32.67C86.87,181,84.53,175.29,81.29,169.41Zm-7,45.92c.56-3.71,1.06-6,1.24-8.34,1-13.73,1.83-27.48,3.06-41.2.53-5.94-1.1-11.24-3.28-16.53-.12-.29-.79-.35-1.42-.6a7.17,7.17,0,0,0-.64,1.76c-1.07,13-2.13,26-2,39.11.06,4.74,0,9.51-.35,14.23C70.63,207.51,71.48,210.74,74.32,215.33Zm71.18,92.39c1-3.57.4-6.34.17-9.08s-.58-5.69-.93-8.52.37-5.7-1.26-8.65c-7.29-.57-11.19,3.71-14.34,9.38C133.28,297.77,139.76,301.85,145.5,307.71Zm-44.89-74.09c2.7-.3,2.85-.35,2.7-1.3a14.36,14.36,0,0,0-.83-3.31c-.18-.42-1-.56-1.87-1Z" transform="translate(0 -10.48)"/>
  </symbol>




</svg>
